<?xml version="1.0" standalone="no"?>
<!DOCTYPE svg PUBLIC "-//W3C//DTD SVG 20010904//EN"
 "http://www.w3.org/TR/2001/REC-SVG-20010904/DTD/svg10.dtd">
<svg version="1.0" xmlns="http://www.w3.org/2000/svg"
 width="1400.000000pt" height="1400.000000pt" viewBox="0 0 1400.000000 1400.000000"
 preserveAspectRatio="xMidYMid meet">
<metadata>
Created by potrace 1.14, written by Peter Selinger 2001-2017
</metadata>
<g transform="translate(0.000000,1400.000000) scale(0.100000,-0.100000)"
fill="#000000" stroke="none">
<path d="M2096 13991 c-4 -6 -12 -8 -18 -5 -6 4 -14 1 -18 -5 -4 -7 -30 -12
-58 -13 -29 0 -52 -3 -52 -6 0 -4 -17 -8 -37 -10 -20 -1 -39 -6 -43 -10 -3 -4
-16 -9 -30 -11 -14 -1 -27 -6 -30 -11 -3 -4 -15 -6 -27 -5 -13 1 -23 -2 -23
-7 0 -5 -4 -6 -10 -3 -5 3 -10 2 -10 -4 0 -6 -7 -8 -15 -5 -8 4 -15 1 -15 -5
0 -6 -3 -10 -7 -10 -5 1 -24 -4 -43 -12 -19 -7 -38 -12 -42 -11 -5 1 -8 -3 -8
-10 0 -6 -3 -8 -6 -5 -4 4 -20 -3 -36 -14 -16 -12 -32 -19 -35 -16 -3 4 -12
-1 -20 -9 -8 -8 -19 -12 -24 -9 -5 4 -9 2 -9 -4 0 -6 -11 -13 -25 -17 -14 -3
-25 -10 -25 -15 0 -5 -9 -9 -21 -9 -11 0 -17 -4 -14 -10 3 -5 0 -10 -7 -10
-19 0 -68 -23 -68 -32 0 -5 -5 -8 -11 -8 -6 0 -28 -13 -49 -30 -21 -16 -41
-30 -44 -30 -6 0 -36 -23 -61 -47 -8 -7 -16 -13 -20 -13 -3 0 -18 -11 -32 -24
-15 -14 -30 -23 -34 -20 -5 2 -13 -4 -18 -15 -6 -11 -20 -23 -31 -26 -11 -4
-18 -11 -15 -16 4 -5 0 -9 -7 -9 -8 0 -21 -8 -29 -17 -27 -30 -57 -52 -63 -46
-3 4 -6 1 -6 -6 0 -7 -7 -19 -15 -27 -8 -9 -15 -13 -15 -10 0 6 -114 -108
-177 -177 -18 -19 -33 -41 -33 -48 0 -7 -3 -9 -7 -6 -3 4 -21 -16 -40 -43 -18
-28 -38 -50 -43 -50 -6 0 -9 -4 -8 -10 2 -5 -5 -20 -15 -32 -36 -46 -82 -113
-82 -121 0 -4 -7 -12 -15 -17 -8 -5 -10 -10 -5 -10 7 0 7 -3 0 -8 -15 -11 -47
-72 -38 -72 4 0 0 -5 -9 -11 -10 -5 -18 -19 -18 -30 0 -13 -4 -18 -12 -13 -7
4 -10 4 -6 -1 4 -4 -4 -28 -18 -53 -14 -24 -23 -50 -20 -57 2 -7 -5 -15 -16
-18 -14 -4 -19 -11 -15 -21 4 -9 2 -16 -4 -16 -6 0 -8 -4 -4 -9 3 -5 1 -12 -5
-16 -6 -4 -8 -11 -5 -16 4 -5 1 -9 -5 -9 -6 0 -10 -8 -8 -17 2 -11 -2 -17 -10
-15 -8 1 -11 -2 -8 -7 4 -5 1 -13 -5 -17 -8 -5 -8 -8 1 -14 9 -5 8 -11 -2 -21
-7 -8 -13 -21 -13 -29 0 -8 -3 -18 -8 -21 -4 -3 -10 -18 -13 -34 -3 -15 -11
-39 -18 -54 -7 -14 -12 -34 -11 -43 2 -10 0 -18 -4 -18 -4 0 -8 -6 -9 -12 -2
-23 -7 -43 -16 -57 -7 -11 -6 -12 5 -6 12 8 12 6 1 -8 -8 -9 -11 -21 -7 -27 3
-5 2 -10 -4 -10 -5 0 -8 -9 -6 -19 2 -11 -3 -22 -12 -26 -12 -4 -13 -9 -5 -17
6 -6 7 -19 3 -32 -5 -11 -7 -31 -6 -43 1 -12 -2 -20 -7 -17 -7 4 -13 -54 -9
-80 1 -4 -6 -15 -16 -23 -10 -8 -13 -12 -7 -9 7 3 10 -9 10 -34 -1 -22 -3 -40
-6 -40 -3 0 -6 -9 -6 -20 0 -11 4 -20 8 -20 5 0 4 -9 -2 -20 -8 -15 -8 -20 2
-20 9 0 9 -3 -2 -10 -8 -5 -11 -12 -8 -16 4 -4 3 -14 -2 -24 -5 -10 -6 -20 -3
-24 10 -10 10 -56 -1 -56 -5 0 -1 -9 9 -20 18 -20 18 -21 -1 -14 -17 7 -17 6
-5 -9 11 -14 11 -17 0 -17 -11 0 -11 -2 1 -10 8 -5 10 -10 4 -10 -14 0 -13
-32 1 -42 6 -5 5 -8 -2 -8 -9 0 -10 -7 -3 -25 6 -16 6 -25 0 -25 -6 0 -10 -5
-10 -11 0 -5 3 -8 8 -6 4 3 7 -6 7 -19 0 -13 -2 -24 -5 -24 -3 0 -4 -17 -3
-37 7 -95 7 -143 1 -143 -4 0 -3 -13 2 -30 5 -16 5 -30 1 -30 -10 0 -7 -37 4
-47 4 -5 5 -2 0 6 -6 10 -4 12 5 6 10 -6 9 -11 -5 -22 -14 -9 -15 -13 -4 -13
8 0 10 -3 4 -8 -5 -4 -10 -14 -10 -22 0 -8 5 -18 10 -22 6 -5 5 -8 -2 -8 -9 0
-10 -7 -3 -26 6 -14 6 -23 2 -20 -10 6 -8 -56 2 -72 3 -6 0 -12 -6 -15 -10 -3
-9 -8 2 -22 9 -11 10 -16 3 -11 -16 9 -17 -6 -1 -22 9 -9 9 -12 -3 -12 -12 0
-12 -2 1 -10 10 -6 11 -10 3 -10 -15 0 -13 -21 2 -32 6 -5 6 -8 -2 -8 -6 0
-10 -8 -8 -17 2 -10 4 -18 5 -18 1 0 3 -10 4 -22 1 -12 0 -20 -4 -18 -8 5 -5
-69 4 -83 3 -6 0 -13 -6 -15 -10 -4 -9 -8 2 -16 8 -6 11 -11 5 -11 -12 0 -13
-60 -2 -77 5 -8 3 -13 -5 -13 -8 -1 -5 -7 7 -17 16 -13 17 -15 3 -10 -21 7
-22 3 -7 -25 8 -15 8 -19 0 -13 -8 4 -10 -2 -6 -22 11 -53 12 -112 2 -106 -6
4 -7 1 -1 -8 11 -19 14 -39 5 -39 -5 0 -7 -20 -5 -45 2 -27 -1 -43 -6 -40 -5
3 -7 -1 -4 -9 3 -9 12 -12 22 -9 10 4 7 -3 -8 -16 -14 -12 -19 -19 -11 -15 11
5 13 2 9 -14 -4 -12 -2 -20 2 -17 5 3 12 0 16 -6 4 -8 3 -9 -4 -5 -14 9 -11
-55 3 -67 6 -5 2 -6 -9 -3 -18 6 -18 5 -2 -19 15 -23 15 -26 1 -31 -21 -8 -19
-25 2 -18 15 5 15 3 -1 -10 -20 -16 -20 -16 0 -16 14 0 16 -2 5 -9 -11 -7 -11
-9 0 -14 12 -5 12 -7 0 -15 -10 -7 -10 -11 -1 -14 7 -2 12 -27 13 -66 0 -34 5
-62 10 -62 4 0 5 -5 2 -10 -4 -6 -12 -7 -18 -3 -8 5 -8 2 0 -9 7 -8 10 -18 6
-21 -3 -4 0 -14 8 -24 10 -12 10 -15 1 -9 -9 6 -12 -1 -10 -26 1 -19 -2 -40
-7 -48 -13 -21 -15 -41 -4 -34 16 10 9 -8 -9 -22 -13 -11 -14 -13 -1 -9 10 4
16 0 16 -10 0 -10 -6 -14 -16 -10 -9 3 -5 -4 8 -15 13 -11 18 -20 13 -20 -14
0 -11 -42 3 -53 6 -5 3 -7 -8 -3 -9 3 -17 1 -17 -5 0 -6 -5 -7 -12 -3 -7 5 -8
3 -2 -7 5 -8 7 -22 5 -33 -1 -10 1 -16 7 -13 5 4 9 0 9 -8 0 -8 -4 -12 -8 -10
-4 3 -10 -2 -13 -11 -3 -8 -2 -13 2 -10 4 2 12 -7 19 -20 6 -13 7 -21 2 -18
-5 3 -12 -2 -15 -10 -3 -9 -11 -13 -18 -9 -6 4 -5 -1 3 -10 7 -9 10 -17 5 -17
-5 -1 2 -8 16 -16 23 -14 23 -15 3 -11 -12 3 -24 -1 -27 -9 -3 -8 0 -11 8 -8
8 3 17 0 22 -7 4 -8 3 -10 -4 -5 -7 4 -12 2 -12 -4 0 -6 -5 -8 -12 -4 -7 4 -8
3 -4 -5 5 -7 16 -9 29 -5 20 6 20 6 4 -10 -9 -10 -14 -22 -11 -28 4 -7 2 -8
-4 -4 -12 7 -16 -4 -12 -37 1 -10 -4 -24 -10 -32 -8 -10 -8 -15 1 -21 8 -5 9
-3 4 6 -5 9 -4 11 4 6 6 -4 9 -11 6 -16 -3 -5 -1 -11 5 -15 13 -8 13 -25 -1
-25 -5 0 -8 4 -4 9 3 6 -5 15 -17 21 -19 9 -21 9 -8 -2 8 -7 17 -20 18 -28 10
-43 10 -49 -3 -44 -7 3 -16 0 -21 -7 -4 -7 -3 -10 3 -6 6 4 16 0 22 -7 9 -11
9 -16 0 -22 -8 -5 -9 -3 -4 6 5 8 4 11 -3 7 -12 -8 -10 -32 3 -44 4 -4 5 -2 0
6 -5 8 -4 12 1 8 11 -6 10 -75 -2 -85 -4 -4 -4 1 -1 10 3 10 3 20 -2 22 -11 7
-10 -27 1 -41 5 -6 18 -10 29 -8 11 2 17 0 14 -6 -4 -5 -9 -7 -13 -5 -4 2 -14
-1 -22 -7 -21 -17 -22 -78 -1 -94 15 -12 15 -13 -1 -7 -20 7 -19 -23 1 -36 9
-5 10 -13 5 -21 -14 -24 -15 -51 -2 -44 7 4 5 0 -4 -8 -21 -16 -24 -32 -6 -21
8 5 7 0 -2 -11 -9 -11 -10 -16 -3 -11 9 5 13 0 13 -14 0 -12 -4 -19 -9 -16
-11 7 -8 -50 3 -61 5 -5 6 -2 1 7 -7 12 -6 13 6 2 12 -11 12 -15 -2 -22 -19
-11 -18 -62 2 -86 12 -16 12 -17 -3 -11 -12 4 -15 2 -11 -8 3 -8 8 -13 12 -11
3 2 6 -9 6 -24 0 -15 -3 -26 -7 -23 -5 2 -8 -1 -8 -6 0 -6 5 -11 11 -11 6 0 3
-7 -5 -16 -14 -14 -14 -34 0 -34 3 0 3 4 -1 9 -3 5 -2 12 3 15 4 2 8 -15 8
-39 0 -24 -4 -41 -8 -39 -3 2 -9 0 -13 -6 -3 -5 2 -10 12 -11 11 0 13 -3 5 -6
-10 -4 -10 -8 0 -21 11 -14 10 -15 -6 -8 -18 6 -19 5 -5 -11 18 -21 16 -67 -3
-91 -7 -9 -8 -13 -2 -9 7 4 14 0 18 -8 3 -10 -1 -15 -12 -15 -13 0 -14 -2 -4
-9 8 -4 15 -22 16 -39 1 -22 -1 -28 -9 -22 -7 6 -11 2 -11 -11 0 -12 5 -18 13
-15 7 3 13 1 13 -4 0 -6 -4 -10 -10 -10 -5 0 -6 -7 -3 -17 5 -12 3 -14 -7 -8
-10 6 -11 4 -4 -6 14 -23 15 -51 2 -67 -8 -10 -9 -13 -2 -9 20 12 26 -24 7
-40 -15 -12 -16 -14 -2 -10 13 4 15 1 12 -14 -3 -10 -10 -16 -17 -13 -6 3 -3
-1 6 -9 16 -13 16 -15 1 -37 -9 -13 -11 -20 -5 -16 7 4 12 4 13 -1 5 -49 4
-61 -6 -53 -6 5 -10 -2 -10 -20 -1 -16 2 -27 6 -24 15 9 15 -22 0 -40 -9 -11
-10 -16 -4 -12 16 9 17 -6 2 -21 -8 -8 -7 -13 2 -18 8 -6 10 -4 4 5 -6 9 -4
11 4 5 9 -5 9 -11 3 -17 -6 -6 -8 -17 -5 -26 4 -10 2 -13 -5 -8 -8 5 -10 2 -6
-8 3 -9 10 -14 14 -11 13 8 5 -21 -10 -41 -8 -10 -10 -15 -4 -11 7 4 15 0 18
-9 3 -8 2 -12 -4 -9 -13 8 -13 -5 0 -25 6 -10 4 -21 -8 -34 -9 -11 -12 -16 -6
-13 7 4 14 -2 17 -13 3 -11 1 -18 -3 -15 -5 3 -11 1 -15 -5 -3 -5 -1 -10 4
-10 6 0 11 -10 11 -22 -1 -13 1 -44 2 -70 2 -27 0 -48 -4 -48 -5 0 -8 5 -8 12
0 6 -3 8 -7 4 -5 -4 1 -14 11 -22 14 -10 16 -14 5 -14 -12 0 -12 -2 1 -10 12
-8 12 -10 1 -10 -11 0 -11 -3 0 -17 8 -9 9 -14 3 -10 -7 4 -14 0 -18 -8 -3 -8
0 -17 6 -21 7 -5 8 -2 3 7 -5 8 -4 11 1 6 13 -12 12 -57 -1 -58 -5 0 -1 -4 10
-9 13 -6 15 -9 5 -9 -12 -1 -15 -14 -14 -61 1 -36 -3 -60 -9 -60 -6 0 -2 -7 9
-15 14 -11 15 -14 4 -15 -13 0 -13 -1 0 -10 13 -8 13 -10 1 -10 -11 0 -10 -4
5 -16 10 -8 14 -13 8 -10 -7 3 -14 -3 -17 -14 -3 -11 -2 -18 3 -15 4 3 10 -2
13 -10 4 -8 1 -12 -6 -9 -8 3 -12 -6 -12 -25 0 -16 3 -27 8 -24 4 2 7 -1 7 -7
0 -6 -7 -13 -15 -16 -8 -4 -12 -11 -9 -16 4 -6 10 -5 15 3 7 11 9 11 9 -2 0
-8 -6 -21 -13 -28 -7 -9 -7 -11 -1 -8 7 4 14 0 17 -8 4 -9 1 -12 -7 -9 -9 4
-11 -4 -8 -27 4 -24 2 -30 -8 -24 -9 5 -11 4 -6 -4 4 -6 12 -8 18 -5 7 5 9 2
5 -8 -3 -9 -1 -20 5 -26 8 -8 4 -9 -13 -5 -21 5 -22 4 -8 -8 18 -16 35 -54 19
-44 -6 3 -11 0 -11 -7 -2 -18 -1 -21 7 -42 5 -14 4 -17 -5 -11 -10 6 -11 3 -3
-11 5 -11 7 -24 5 -31 -2 -7 1 -22 8 -35 l12 -23 -24 20 c-13 11 -19 13 -13 5
7 -8 15 -25 18 -37 6 -19 4 -22 -11 -17 -10 3 -7 -2 7 -10 14 -8 19 -15 11
-16 -9 0 -11 -8 -7 -26 5 -19 4 -24 -6 -18 -7 4 -5 -2 5 -13 14 -16 15 -23 6
-29 -8 -5 -10 -3 -4 6 5 9 4 11 -4 6 -9 -6 -9 -11 0 -22 6 -8 9 -22 6 -33 -2
-10 0 -27 6 -37 9 -16 8 -17 -4 -7 -12 10 -15 8 -15 -7 0 -10 3 -17 7 -14 4 2
9 -3 13 -11 3 -8 0 -17 -6 -21 -7 -5 -8 -2 -3 6 5 9 4 11 -4 6 -6 -4 -9 -11
-6 -16 3 -5 7 -40 9 -79 3 -51 1 -69 -8 -64 -7 4 -6 1 1 -9 7 -8 10 -18 6 -21
-3 -4 0 -7 7 -7 9 0 8 -5 -5 -13 -14 -11 -15 -16 -5 -22 9 -6 11 -4 5 5 -5 9
-4 11 3 6 9 -5 7 -15 -6 -34 -10 -16 -12 -23 -4 -18 16 10 13 -25 -3 -36 -6
-5 -5 -8 3 -8 7 0 10 -4 7 -10 -3 -5 -1 -10 6 -10 7 0 5 -6 -6 -13 -14 -11
-15 -16 -5 -22 9 -6 11 -4 5 5 -5 9 -4 11 3 6 9 -5 7 -14 -4 -32 -15 -22 -15
-24 0 -18 12 5 15 2 10 -10 -3 -9 -11 -13 -18 -9 -8 4 -8 2 1 -7 6 -7 9 -19 6
-28 -5 -11 -3 -13 7 -7 9 6 11 4 5 -6 -14 -22 -15 -60 -2 -53 7 3 4 -1 -6 -9
-16 -13 -16 -15 -2 -21 12 -4 14 -10 5 -25 -5 -11 -6 -22 -2 -25 10 -6 9 -36
-2 -54 -4 -6 -4 -12 0 -12 3 0 1 -7 -6 -15 -11 -13 -10 -14 5 -9 15 6 16 4 6
-14 -8 -15 -8 -22 -1 -22 8 0 8 -6 0 -20 -8 -15 -8 -20 1 -20 8 0 8 -4 -1 -15
-7 -8 -8 -15 -3 -15 11 0 9 -62 -2 -81 -6 -8 -4 -10 6 -4 12 8 12 6 0 -8 -11
-14 -11 -17 0 -17 11 0 11 -2 -1 -10 -12 -7 -12 -10 -1 -10 7 0 11 -6 7 -15
-3 -8 3 -19 12 -25 15 -9 14 -10 -5 -5 -15 4 -21 2 -19 -9 1 -9 6 -19 11 -23
4 -4 5 -2 0 6 -6 10 -4 12 4 7 9 -6 9 -11 0 -22 -6 -8 -8 -14 -5 -14 4 0 2 -9
-4 -20 -7 -13 -7 -20 -1 -20 7 0 7 -9 1 -25 -6 -16 -6 -25 0 -25 6 0 6 -9 0
-25 -6 -16 -6 -25 0 -25 12 0 9 -22 -5 -32 -7 -5 -7 -8 0 -8 11 0 12 -126 1
-137 -3 -3 -1 -12 5 -20 9 -10 8 -17 -1 -28 -7 -8 -8 -15 -3 -15 6 0 9 -37 7
-92 -2 -61 1 -97 9 -107 9 -12 9 -13 -1 -7 -16 9 -16 -6 0 -23 10 -11 10 -13
1 -7 -18 10 -16 -4 4 -28 14 -16 15 -18 2 -8 -14 11 -17 9 -17 -13 0 -13 4
-23 8 -20 3 2 7 -2 7 -10 0 -8 -4 -12 -9 -9 -4 3 -8 -2 -8 -11 0 -10 5 -13 12
-9 7 5 8 3 4 -5 -12 -19 -15 -111 -3 -104 6 3 7 1 3 -5 -3 -6 -2 -14 4 -17 8
-5 8 -11 0 -20 -7 -8 -9 -19 -5 -24 4 -7 0 -8 -11 -4 -15 6 -15 4 1 -20 13
-21 14 -27 4 -27 -11 0 -11 -2 1 -10 10 -6 11 -10 3 -10 -7 0 -13 -7 -13 -15
0 -8 5 -15 11 -15 6 0 4 -7 -5 -15 -13 -14 -13 -45 1 -45 3 0 3 7 0 15 -4 8
-2 17 3 20 4 3 6 -13 4 -35 -4 -28 -1 -40 8 -40 10 0 10 -2 -1 -9 -8 -5 -12
-18 -8 -30 4 -15 0 -21 -11 -21 -14 0 -14 -2 -3 -9 7 -5 10 -14 6 -20 -4 -7
-1 -19 7 -28 7 -9 8 -14 1 -10 -12 8 -10 -53 3 -74 4 -8 3 -9 -4 -5 -7 4 -12
2 -12 -3 0 -6 5 -11 12 -11 6 0 3 -7 -8 -15 -18 -14 -18 -14 6 -10 22 4 23 3
8 -9 -14 -10 -15 -15 -5 -25 9 -10 8 -11 -7 -5 -18 7 -18 6 -1 -19 9 -15 13
-27 8 -27 -5 0 -8 -13 -5 -30 3 -19 8 -27 16 -23 7 4 6 1 -1 -9 -7 -8 -9 -19
-5 -23 4 -5 -2 -5 -12 -1 -20 7 -20 7 0 -15 10 -12 13 -19 6 -15 -6 4 -12 2
-12 -3 0 -6 6 -11 13 -11 6 0 4 -5 -5 -11 -10 -5 -18 -15 -18 -22 0 -8 3 -8 9
2 6 9 10 4 13 -18 4 -26 2 -31 -11 -26 -12 5 -12 2 2 -13 9 -10 15 -21 13 -23
-2 -2 -6 -17 -10 -32 -5 -21 -4 -27 5 -21 8 5 9 3 4 -7 -5 -7 -8 -28 -7 -47 2
-25 -1 -32 -10 -26 -11 6 -11 5 0 -8 7 -9 11 -29 10 -46 -1 -16 4 -37 11 -46
12 -14 12 -16 -3 -10 -14 5 -15 3 -7 -20 7 -17 7 -27 -1 -32 -7 -5 -8 -3 -3 6
5 9 4 11 -3 6 -18 -11 -14 -26 6 -27 10 0 12 -3 5 -6 -9 -3 -10 -10 -3 -24 8
-13 7 -19 0 -19 -6 0 -8 -5 -5 -10 4 -6 11 -7 17 -4 7 4 8 2 4 -5 -4 -6 -11
-9 -16 -6 -5 3 -11 1 -14 -4 -4 -5 -1 -13 5 -17 8 -4 9 -3 5 4 -11 18 0 14 15
-5 12 -14 12 -16 0 -8 -11 6 -13 3 -9 -13 4 -13 1 -22 -5 -22 -8 0 -7 -4 1
-12 13 -13 16 -32 4 -24 -9 5 -7 -47 2 -63 4 -5 1 -13 -4 -16 -8 -5 -6 -13 5
-25 11 -12 13 -20 5 -25 -14 -9 -2 -27 13 -18 7 3 4 -2 -5 -13 -14 -16 -15
-23 -6 -32 13 -13 21 -45 9 -38 -4 3 -7 -4 -7 -14 0 -10 4 -17 7 -14 4 2 10 0
14 -6 3 -5 2 -10 -4 -10 -6 0 -6 -12 0 -35 6 -19 7 -40 4 -45 -3 -6 2 -10 12
-11 16 0 16 -1 -1 -8 -18 -7 -18 -8 -2 -14 16 -6 16 -10 5 -24 -10 -12 -10
-14 -2 -9 7 4 13 2 13 -3 0 -6 -6 -11 -12 -11 -7 0 -5 -5 4 -11 13 -7 17 -19
13 -44 -3 -28 -1 -35 13 -36 9 0 12 -3 5 -5 -13 -6 -6 -35 11 -46 7 -5 7 -8
-2 -8 -9 0 -10 -5 -2 -20 5 -11 14 -28 19 -39 6 -12 6 -22 -2 -30 -7 -7 -7
-11 -1 -11 6 0 16 -12 22 -26 10 -20 10 -24 0 -18 -10 6 -11 5 -1 -8 7 -8 10
-18 6 -21 -3 -4 -2 -7 4 -7 6 0 9 -10 6 -22 -4 -19 -3 -20 7 -8 10 12 11 11 7
-8 -4 -15 0 -25 10 -29 12 -5 12 -7 1 -14 -10 -7 -10 -9 0 -9 6 0 12 -8 12
-18 0 -10 8 -28 17 -42 15 -22 19 -34 25 -77 1 -7 5 -13 10 -13 4 0 8 -6 8
-13 0 -22 40 -98 49 -93 4 3 8 -1 8 -9 0 -8 -5 -12 -11 -9 -6 3 -4 0 5 -8 9
-7 14 -19 12 -25 -3 -7 2 -16 11 -19 9 -3 13 -10 10 -15 -3 -5 0 -9 6 -9 6 0
8 -4 5 -10 -3 -5 -1 -10 6 -10 7 0 10 -3 6 -6 -3 -4 2 -14 11 -23 11 -10 12
-12 2 -6 -11 7 -11 5 3 -11 9 -11 14 -24 10 -28 -5 -4 -1 -6 7 -4 9 2 15 -4
15 -15 0 -10 8 -23 18 -28 9 -6 17 -17 17 -26 0 -10 6 -13 16 -9 13 5 14 3 6
-6 -11 -15 10 -42 24 -30 4 4 4 2 0 -5 -3 -6 -2 -14 4 -18 6 -4 7 -11 4 -17
-5 -7 -2 -8 6 -3 10 6 12 4 6 -11 -4 -10 -4 -15 0 -11 4 4 14 -2 21 -13 8 -11
18 -18 23 -15 4 3 6 -5 2 -17 -3 -14 -2 -19 6 -14 7 4 12 1 12 -8 0 -9 9 -21
20 -28 11 -7 20 -19 20 -26 0 -7 7 -15 16 -19 8 -3 13 -12 10 -20 -4 -8 -1
-11 5 -8 6 4 13 -2 16 -14 3 -12 12 -21 19 -21 8 0 14 -6 14 -12 0 -7 42 -54
94 -104 52 -51 92 -95 88 -99 -4 -4 -2 -6 3 -5 20 4 35 0 35 -11 0 -15 26 -39
34 -32 3 4 6 1 6 -6 0 -7 4 -9 10 -6 6 3 7 -1 4 -9 -4 -11 0 -16 14 -16 11 0
26 -8 33 -17 13 -17 13 -17 -6 -3 -19 14 -19 14 -6 -2 7 -10 22 -18 32 -18 10
0 26 -11 35 -26 11 -16 23 -23 33 -19 8 3 12 3 9 -1 -7 -6 2 -17 36 -44 12 -9
17 -10 12 -2 -4 6 -2 12 3 12 11 0 15 -15 11 -35 -1 -5 2 -7 6 -3 8 9 83 -30
102 -52 10 -13 11 -12 5 5 -4 15 -1 13 16 -7 14 -17 32 -28 47 -28 14 0 22 -4
19 -10 -3 -5 1 -10 10 -10 14 0 53 -18 65 -30 3 -3 12 -6 20 -8 8 -2 16 -7 18
-12 2 -5 10 -6 18 -3 8 3 14 0 14 -7 0 -6 4 -9 9 -6 5 3 21 -4 35 -15 15 -12
33 -19 40 -16 7 3 19 0 25 -6 6 -6 11 -7 11 -2 0 6 4 4 9 -3 4 -7 24 -14 43
-15 20 -1 34 -5 31 -9 -4 -7 21 -12 54 -11 7 1 11 -3 8 -7 -3 -5 -1 -11 5 -15
5 -3 10 0 10 7 0 8 3 9 8 3 18 -25 40 -36 48 -24 5 8 3 9 -6 4 -9 -6 -11 -4
-5 5 6 10 11 9 22 -5 8 -12 13 -14 13 -5 0 9 6 8 20 -5 15 -14 20 -15 20 -4 0
9 3 10 8 4 4 -6 16 -12 27 -12 33 -2 74 -11 86 -19 8 -4 9 -3 5 4 -4 7 -2 12
3 12 6 0 11 -4 11 -8 0 -5 15 -9 33 -10 83 -4 103 -7 110 -17 4 -6 10 -5 17 5
7 12 10 12 10 1 0 -7 6 -11 15 -7 8 3 15 1 15 -4 0 -6 5 -10 11 -10 5 0 7 6 3
13 -6 9 -4 9 8 -1 12 -10 18 -10 23 -1 6 8 10 7 16 -2 8 -12 10 -12 18 0 5 7
11 9 14 4 6 -9 145 -9 154 1 4 3 15 -2 25 -11 18 -16 18 -16 12 0 -4 12 -2 16
7 13 47 -15 70 -16 63 -4 -6 10 -3 9 9 -1 14 -11 17 -11 17 0 0 10 3 10 12 1
15 -15 32 -16 22 -1 -4 7 1 7 16 -1 21 -11 22 -10 16 6 -5 17 -5 17 10 -1 11
-14 18 -16 21 -7 3 6 9 9 15 6 18 -12 87 -11 81 0 -4 6 0 5 8 -1 12 -10 18
-10 27 -1 9 9 12 9 12 -2 0 -9 5 -8 16 6 8 10 13 14 10 7 -4 -6 -2 -14 4 -18
5 -3 10 -1 10 5 0 8 6 8 20 0 11 -6 20 -7 20 -2 0 10 36 9 46 -1 4 -4 18 0 30
8 15 10 25 11 29 4 5 -7 11 -6 20 1 10 8 15 8 20 0 5 -8 11 -8 21 1 11 9 14 8
14 -2 0 -12 2 -12 9 0 7 11 9 11 14 0 4 -9 6 -7 7 6 l1 20 9 -20 c5 -11 9 -14
9 -6 1 11 4 11 18 0 14 -12 16 -12 8 0 -6 11 -4 13 8 8 10 -3 17 -2 17 4 0 6
4 8 8 5 5 -3 9 2 9 10 0 8 -6 13 -12 10 -6 -2 -12 2 -12 10 0 7 4 11 8 9 4 -3
5 4 2 15 -3 11 -10 20 -16 20 -8 0 -7 4 1 12 7 7 8 17 2 29 -7 12 -6 20 1 25
8 4 7 9 -2 15 -11 7 -11 9 -1 9 7 0 10 5 7 10 -3 6 -1 10 6 10 7 0 4 7 -7 16
-10 8 -13 13 -6 9 8 -4 12 5 12 33 0 21 3 42 7 45 3 4 8 24 10 44 2 20 12 43
21 50 9 8 11 12 4 8 -6 -3 -12 0 -12 7 0 7 16 21 35 30 19 10 34 14 34 10 -4
-22 3 -34 16 -28 8 3 15 1 15 -4 0 -6 11 -10 25 -10 15 0 25 -6 25 -14 0 -9 9
-13 25 -11 14 1 23 0 20 -3 -2 -3 3 -11 13 -18 13 -9 20 -10 31 -1 12 9 13 9
7 0 -4 -8 -1 -13 8 -13 9 0 16 -5 16 -11 0 -6 8 -9 18 -7 10 2 29 -9 45 -27
17 -19 25 -23 21 -12 -6 17 -5 18 14 6 11 -7 18 -18 14 -24 -3 -5 3 -3 13 5
11 9 16 10 11 3 -4 -8 -1 -13 8 -13 25 0 30 -3 49 -24 10 -12 15 -14 11 -6 -7
13 -6 13 12 0 10 -8 22 -19 26 -25 4 -5 8 -6 8 -1 0 4 12 1 26 -9 18 -11 24
-13 19 -4 -6 11 -5 12 6 1 7 -6 21 -12 32 -12 10 0 15 -4 12 -10 -4 -6 6 -10
22 -10 15 0 37 -7 47 -15 10 -8 23 -12 27 -9 5 3 9 1 9 -4 0 -5 10 -8 23 -8
12 1 31 -5 41 -13 14 -12 17 -12 11 -2 -6 10 -4 12 4 7 7 -5 10 -14 7 -22 -4
-12 -2 -12 14 -4 15 8 20 8 20 -1 0 -7 3 -9 7 -6 3 4 15 -1 26 -10 11 -10 18
-13 14 -7 -3 6 0 11 8 11 8 0 13 -5 12 -11 -1 -6 8 -10 20 -10 13 1 20 -3 16
-9 -4 -6 2 -8 15 -5 12 4 25 1 29 -4 4 -7 1 -8 -7 -3 -9 5 -11 4 -6 -4 4 -6
13 -11 19 -10 27 3 38 -2 31 -13 -5 -9 -2 -9 9 1 11 9 17 10 17 2 0 -6 9 -11
19 -11 11 0 23 -5 26 -10 5 -8 12 -7 23 2 13 11 14 11 7 -1 -6 -11 -4 -13 8
-8 10 3 17 2 17 -3 0 -12 22 -9 32 5 5 6 8 3 8 -7 0 -21 16 -32 26 -17 5 8 3
9 -6 4 -9 -5 -11 -4 -6 4 5 7 16 9 28 5 15 -4 18 -3 13 6 -6 9 -3 9 14 1 16
-9 21 -9 21 1 0 9 3 9 10 -2 8 -12 10 -12 10 -1 0 9 4 10 13 3 6 -5 21 -6 32
-2 11 4 29 3 39 -2 16 -9 18 -8 12 8 -7 18 -6 18 10 2 16 -16 18 -16 31 0 8 9
11 11 7 3 -5 -9 -1 -12 12 -7 11 3 34 2 51 -3 27 -8 31 -7 25 7 -5 15 -4 15
11 3 12 -10 17 -10 17 -2 0 8 6 7 16 -3 20 -21 25 -20 17 2 -6 14 -4 15 9 4
13 -10 17 -10 21 0 4 10 6 10 6 1 1 -7 6 -13 12 -13 5 0 7 6 3 13 -6 9 -4 9 8
-1 13 -10 17 -10 20 0 4 10 8 10 21 -1 14 -11 17 -11 17 0 0 11 2 11 10 -1 9
-13 10 -13 10 0 0 13 1 13 10 0 9 -13 10 -13 10 0 0 13 1 13 10 0 9 -13 10
-13 10 0 0 12 2 13 9 1 7 -11 9 -11 14 0 4 12 7 11 16 -1 8 -11 11 -12 11 -2
0 8 5 10 12 6 17 -11 48 -12 42 -2 -8 13 10 10 25 -5 11 -10 12 -9 6 2 -6 11
-4 13 8 8 10 -3 17 -2 17 3 0 6 5 10 11 10 5 0 8 -4 4 -9 -3 -5 -1 -12 5 -16
5 -3 10 -1 10 5 0 7 7 7 23 -1 20 -11 21 -11 9 4 -12 14 -11 15 17 7 22 -6 31
-5 32 3 0 7 4 3 9 -8 5 -11 9 -14 9 -6 1 9 11 12 36 9 19 -2 35 0 35 4 0 4 11
3 25 -2 17 -7 25 -6 25 1 0 8 5 7 15 -1 11 -9 15 -9 15 -1 0 9 5 9 20 1 15 -8
20 -8 20 2 0 6 7 3 15 -8 11 -14 14 -15 9 -3 -3 10 0 20 7 25 7 4 10 3 6 -3
-4 -6 2 -13 13 -16 11 -3 20 0 20 6 0 7 5 5 10 -3 7 -11 10 -11 10 -2 0 10 5
10 20 2 16 -9 20 -8 21 7 0 16 1 16 9 -2 5 -11 9 -14 9 -6 1 10 4 11 15 2 11
-9 15 -9 19 1 4 10 7 10 15 -1 8 -11 10 -11 15 0 4 11 6 11 6 1 1 -9 6 -10 20
-2 14 7 21 6 24 -3 4 -9 6 -9 6 1 1 6 6 12 12 12 5 0 7 -5 3 -12 -5 -7 -3 -8
5 -3 19 11 71 12 78 1 4 -5 10 -1 14 10 7 18 8 18 8 -1 1 -17 3 -18 11 -5 9
13 11 13 20 0 8 -12 10 -12 10 -1 0 11 3 11 15 1 8 -7 15 -8 15 -3 0 11 29 11
48 -1 7 -4 12 -2 12 5 0 8 5 7 17 -2 11 -10 14 -10 9 -1 -9 15 -1 15 26 1 15
-8 19 -8 14 0 -4 6 -2 11 3 11 6 0 11 -6 11 -12 0 -8 7 -5 15 6 8 11 15 15 15
9 0 -7 21 -11 50 -11 36 -1 49 3 44 11 -3 7 2 3 10 -7 9 -11 16 -16 16 -10 0
11 113 10 131 -1 8 -5 10 -4 5 3 -8 13 20 12 41 -1 6 -4 13 -1 16 5 3 10 7 10
20 -1 15 -12 17 -11 18 5 0 11 3 14 6 7 2 -7 14 -13 24 -13 13 0 18 4 13 13
-4 6 2 4 13 -6 16 -14 22 -15 26 -5 4 11 7 10 15 -1 8 -11 12 -10 21 5 6 11
11 14 11 6 0 -8 9 -12 23 -11 12 2 28 -1 36 -5 11 -7 13 -5 7 10 -6 15 -5 17
5 6 16 -15 53 -16 43 -1 -3 6 6 3 22 -7 15 -11 25 -13 21 -6 -10 15 5 16 21 0
9 -9 12 -8 13 7 0 11 3 14 6 8 2 -7 14 -13 24 -13 14 0 18 4 13 13 -5 8 -2 8
9 -2 14 -11 20 -11 34 0 9 8 14 9 11 3 -5 -6 11 -11 43 -11 35 -1 47 2 42 10
-4 7 0 6 10 -2 9 -7 28 -11 42 -9 14 3 28 1 31 -4 4 -6 10 -5 15 3 8 12 11 12
18 -1 9 -12 11 -12 17 3 3 9 10 17 16 17 5 0 6 -5 3 -10 -4 -6 5 -10 22 -8 16
1 35 -2 42 -7 10 -5 12 -4 7 3 -10 16 7 15 23 0 11 -11 13 -10 8 5 -5 13 -3
16 6 10 22 -14 58 -14 75 -1 10 8 13 9 9 1 -4 -6 -3 -14 3 -18 5 -3 10 -2 10
3 0 19 33 22 53 5 11 -10 17 -13 14 -6 -4 6 -3 14 3 18 5 3 10 2 10 -3 0 -11
60 -10 78 1 7 5 12 5 11 0 -3 -20 2 -23 17 -9 14 14 18 14 42 -2 14 -9 23 -12
19 -6 -4 7 0 14 8 18 8 3 17 1 20 -3 9 -16 56 -19 62 -5 3 8 9 14 15 14 5 0 6
-4 3 -10 -4 -6 5 -10 20 -10 18 0 24 4 19 13 -5 8 -2 8 9 -2 14 -11 20 -11 34
0 9 8 14 9 10 3 -4 -7 0 -15 9 -18 8 -3 12 -2 9 3 -3 5 -1 12 5 16 5 3 10 1
10 -6 0 -8 5 -7 17 2 9 8 14 9 10 3 -4 -7 0 -14 8 -18 8 -3 14 -2 14 2 -3 19
2 25 11 12 9 -13 10 -13 10 0 0 13 2 13 9 1 8 -12 12 -12 24 -2 9 7 18 8 21 3
8 -13 58 -12 75 2 11 8 13 8 8 0 -9 -16 73 -17 92 -1 10 8 13 8 8 1 -4 -7 3
-14 18 -17 14 -2 28 0 32 6 4 6 1 7 -7 2 -9 -5 -11 -4 -6 4 4 6 13 8 19 4 22
-14 49 -14 41 -1 -6 10 -5 10 7 2 8 -7 25 -11 39 -10 14 1 33 -2 44 -7 13 -6
16 -6 12 2 -10 15 7 14 23 -1 9 -9 12 -9 7 -1 -4 8 7 10 43 7 29 -2 53 1 56 7
4 6 11 6 18 1 7 -5 33 -9 58 -9 26 0 51 -3 57 -7 5 -3 13 1 16 10 6 15 8 15
31 0 16 -11 25 -12 25 -5 0 8 6 7 17 -2 11 -10 14 -10 9 -1 -9 15 -1 15 26 1
15 -8 19 -8 14 0 -4 6 -3 11 3 11 5 0 13 -5 16 -11 5 -6 12 -4 21 8 13 17 13
17 14 -2 1 -11 4 -15 6 -9 2 6 18 9 34 6 17 -2 27 -9 23 -15 -3 -6 -1 -7 5 -3
7 4 12 15 12 24 0 13 2 13 15 -4 8 -10 15 -14 15 -8 0 8 11 9 35 4 19 -4 35
-4 35 1 0 5 11 4 25 -1 16 -6 25 -6 25 0 0 5 7 7 15 4 8 -4 12 -11 9 -18 -3
-6 1 -3 9 7 13 15 17 16 29 4 11 -12 16 -12 26 0 9 9 18 10 31 4 9 -5 23 -6
31 -1 17 11 42 1 33 -14 -3 -6 -1 -6 8 2 17 16 42 16 34 0 -4 -7 1 -4 9 6 16
20 16 20 17 0 0 -10 3 -13 6 -6 6 16 43 16 43 0 0 -9 3 -9 9 1 5 8 18 12 29 9
11 -3 26 -2 33 3 9 5 23 2 38 -7 13 -9 21 -12 17 -6 -3 5 1 12 9 16 8 3 17 0
21 -6 5 -7 2 -8 -7 -3 -8 5 -10 4 -6 0 10 -12 38 -15 31 -4 -3 5 -1 9 5 9 5 0
12 -6 14 -12 3 -7 6 -4 6 7 1 17 3 17 11 5 5 -8 10 -10 10 -5 0 6 5 3 10 -5 8
-12 10 -12 10 -1 0 11 3 11 17 0 11 -10 14 -10 9 -1 -4 7 -1 12 9 12 10 0 13
-5 9 -12 -6 -9 -3 -9 9 0 9 8 22 10 29 6 18 -11 59 -13 52 -2 -3 4 0 8 5 8 6
0 11 -6 11 -12 0 -9 4 -8 10 2 7 12 14 12 27 4 22 -13 45 -7 37 9 -3 7 2 3 10
-7 9 -11 16 -14 16 -8 0 7 5 12 11 12 5 0 8 -4 5 -9 -4 -5 1 -8 10 -7 8 1 20
9 25 17 7 11 9 11 9 -4 0 -12 4 -16 13 -10 17 11 38 13 32 3 -6 -10 15 -8 33
3 7 5 12 3 12 -5 0 -10 2 -10 9 1 7 10 10 10 16 1 6 -9 13 -6 27 11 15 20 17
21 12 4 -4 -11 -4 -17 1 -13 4 4 15 2 23 -5 11 -8 14 -8 9 0 -11 18 26 21 47
4 15 -12 17 -12 11 -2 -6 11 -4 13 8 8 10 -4 17 -1 17 6 0 8 3 7 9 -2 5 -8 19
-15 30 -16 11 -1 18 2 15 6 -2 4 5 7 16 6 11 -1 20 -5 20 -10 0 -5 6 -4 14 2
11 9 16 9 21 0 6 -8 10 -7 16 2 7 11 9 11 9 1 0 -8 5 -10 13 -5 18 11 38 13
31 2 -3 -5 -1 -9 5 -9 5 0 13 5 16 10 5 8 11 7 21 -1 11 -9 14 -8 14 2 0 9 3
10 8 3 9 -14 45 -14 54 0 5 7 8 7 8 1 0 -7 43 -12 115 -13 89 -1 114 1 108 11
-4 8 -2 8 9 -1 9 -8 25 -12 35 -10 10 1 24 -1 31 -5 6 -5 12 -5 12 0 0 9 103
8 119 -1 6 -4 11 -4 11 1 0 12 210 10 211 -2 0 -5 4 -1 9 10 5 11 9 14 9 8 1
-7 8 -13 17 -13 9 0 12 5 8 13 -6 9 -5 9 7 0 18 -14 58 -14 78 1 11 8 13 8 8
0 -4 -7 2 -12 18 -12 16 0 22 5 18 12 -4 7 -1 6 8 -1 12 -10 18 -10 29 0 10
10 11 9 5 -2 -6 -11 -3 -13 13 -9 12 4 25 2 28 -4 4 -6 10 -5 15 3 7 12 9 12
9 0 0 -10 3 -11 14 -2 11 9 16 9 22 0 5 -8 3 -9 -6 -4 -9 5 -11 4 -6 -4 4 -6
13 -8 19 -4 19 12 51 11 59 -1 5 -7 8 -6 8 4 0 13 1 13 10 0 8 -11 12 -12 18
-3 5 8 13 9 22 3 9 -6 20 -4 29 3 12 10 13 9 6 -3 -7 -13 -6 -13 7 -2 13 10
17 10 20 0 4 -10 8 -10 21 1 10 7 17 10 17 6 0 -4 7 -2 16 5 8 8 14 9 13 4 -3
-19 2 -29 9 -17 5 7 35 13 75 14 45 1 64 5 60 13 -4 6 1 5 10 -3 9 -7 17 -9
17 -4 0 6 15 11 33 12 54 3 57 4 57 12 0 5 7 6 15 3 8 -4 15 -1 15 6 0 6 4 9
9 6 5 -4 12 0 14 6 4 10 6 9 6 -1 1 -11 4 -11 16 -1 8 7 26 10 40 7 14 -2 23
-2 20 1 -8 8 16 32 27 26 5 -3 16 0 25 8 14 11 16 11 8 -2 -8 -13 -7 -13 8 -1
9 7 17 10 17 5 0 -4 6 0 13 11 11 14 16 15 22 5 6 -9 9 -9 15 0 6 10 24 17 53
19 5 1 6 5 3 9 -3 5 9 6 26 4 21 -3 29 -1 24 7 -4 7 0 11 11 11 11 0 25 6 32
13 11 10 13 9 7 -3 -6 -12 -5 -12 6 1 7 9 18 14 24 12 7 -2 18 2 26 10 7 8 21
13 31 11 9 -1 17 2 17 7 0 5 7 9 16 9 8 0 13 4 10 9 -4 5 2 8 11 7 10 -2 24 3
31 11 8 7 18 11 23 8 5 -4 9 -2 9 4 0 6 11 13 25 17 14 3 25 11 25 16 0 6 7 8
15 4 8 -3 14 0 12 7 -1 7 4 11 11 10 6 -2 12 2 12 8 0 6 6 9 14 6 16 -6 41 17
33 30 -3 5 4 10 16 10 12 1 27 10 34 19 6 9 16 13 21 10 6 -3 13 1 16 10 3 8
10 13 15 9 5 -3 13 4 16 16 4 11 9 18 12 15 5 -5 18 4 60 44 16 15 21 17 12 5
-14 -19 -14 -19 12 0 15 11 24 26 22 32 -3 7 2 13 11 13 9 0 16 5 16 11 0 5 5
7 10 4 6 -3 10 1 10 9 0 8 10 20 21 27 12 6 37 28 57 50 19 21 39 36 44 33 4
-3 5 3 1 12 -4 12 -3 15 5 10 7 -4 15 -1 18 8 3 9 10 13 15 10 5 -3 6 3 2 13
-3 10 -3 15 2 11 9 -8 35 15 35 31 0 6 4 10 9 8 5 -1 9 0 8 3 -1 10 98 105
106 102 5 -2 7 6 4 18 -3 11 -1 18 4 14 5 -3 18 11 30 30 12 20 25 36 31 36 5
0 7 4 4 8 -3 5 4 16 15 25 11 10 17 23 13 29 -4 7 -3 8 5 4 12 -8 32 33 23 48
-3 5 2 7 11 3 12 -5 17 -1 17 13 0 10 11 31 25 45 14 14 21 25 15 25 -5 0 -1
9 10 20 19 19 24 33 21 53 -1 5 3 6 8 2 6 -3 13 6 17 20 3 14 11 25 17 25 6 0
8 3 4 6 -3 4 1 13 9 21 8 8 12 18 9 23 -3 4 2 11 10 14 8 3 15 9 14 13 -4 21
2 33 13 27 6 -4 8 -3 4 4 -3 6 -2 13 4 17 6 4 8 11 5 16 -4 5 -1 9 5 9 6 0 9
4 6 8 -3 5 4 16 14 25 11 9 17 23 14 32 -4 8 -1 15 6 15 6 0 9 4 5 9 -3 5 0
13 6 16 5 4 8 13 5 21 -3 8 -2 14 2 14 4 0 13 9 20 21 9 14 10 19 2 14 -7 -4
-4 4 5 19 10 14 13 26 9 26 -5 0 -1 5 9 11 14 8 16 14 6 25 -8 10 -8 14 0 14
6 0 11 9 11 20 0 11 5 20 10 20 6 0 8 11 6 25 -3 14 -1 23 5 20 8 -5 14 23 10
48 0 4 2 7 7 7 4 0 8 17 10 37 1 20 6 39 10 43 4 3 7 12 7 20 -1 8 2 20 5 25
8 13 7 27 -4 44 -7 10 -6 12 4 6 10 -6 12 -4 7 8 -3 10 -3 17 2 17 8 0 10 23
11 98 0 12 6 22 13 22 8 0 7 4 -3 10 -8 5 -10 10 -4 10 7 0 11 19 9 49 0 28 1
48 4 46 3 -2 6 13 5 33 0 21 3 45 8 54 5 10 4 19 -4 24 -7 5 -8 3 -3 -6 6 -9
4 -11 -5 -5 -11 7 -10 10 1 19 15 12 20 66 7 66 -4 0 -8 5 -8 11 0 5 5 7 10 4
13 -8 13 1 -1 27 -9 16 -8 19 2 13 9 -6 10 -3 6 10 -4 9 -3 23 3 30 8 10 6 17
-10 28 -18 13 -19 15 -5 21 9 3 14 10 10 15 -3 5 -1 13 5 16 8 5 7 11 -1 21
-6 8 -9 17 -6 21 4 3 1 13 -6 21 -9 13 -9 14 1 8 8 -5 12 0 12 14 0 14 -4 19
-12 14 -10 -6 -10 -4 0 7 16 17 16 43 0 33 -10 -6 -10 -4 -2 7 6 8 10 27 9 42
-1 15 2 30 6 33 5 3 3 13 -3 24 -9 14 -9 22 3 36 9 11 9 15 2 10 -16 -9 -17 6
-2 21 7 7 5 15 -6 27 -9 9 -12 16 -6 16 7 0 9 11 7 26 -3 15 0 36 5 47 7 11 7
17 1 13 -6 -3 -9 7 -8 24 0 17 5 30 11 30 5 0 3 4 -5 10 -8 5 -11 12 -7 16 4
4 2 13 -4 20 -7 8 -6 14 2 20 8 5 9 3 4 -6 -5 -8 -4 -11 3 -6 6 4 9 13 6 21
-4 8 -11 12 -18 8 -6 -4 -5 1 3 10 8 10 11 20 8 24 -4 3 -2 12 4 20 6 7 7 13
2 13 -10 0 -11 89 0 106 3 6 4 14 0 18 -11 10 -9 126 2 126 6 0 4 4 -4 9 -10
7 -11 13 -1 31 8 15 8 20 1 16 -15 -10 -14 7 1 22 7 7 8 12 2 12 -5 0 -10 9
-11 20 -1 13 2 18 9 14 7 -4 8 -2 4 5 -11 17 -14 91 -4 85 4 -3 8 -1 8 5 0 5
-6 11 -12 14 -10 3 -10 7 1 20 11 14 11 17 0 17 -11 0 -11 2 1 10 8 5 10 10 4
10 -12 0 -11 41 2 61 5 8 3 9 -5 4 -10 -6 -11 -3 -2 13 8 15 8 21 -2 25 -9 3
-9 7 2 20 7 10 10 17 5 17 -5 0 -9 18 -9 40 -1 22 2 40 6 40 4 0 4 13 -1 28
-4 17 -3 36 2 47 8 13 7 16 -2 10 -9 -6 -9 -3 -1 14 9 16 9 21 -1 21 -10 0
-10 2 1 9 11 7 11 9 0 13 -12 4 -12 7 0 21 11 14 11 17 0 17 -12 0 -12 2 0 9
11 7 11 9 0 13 -12 4 -12 7 0 21 7 10 9 17 4 17 -5 0 -10 7 -10 15 0 8 5 15
11 15 7 0 8 3 1 8 -14 9 -14 45 0 54 6 5 5 8 -4 8 -7 0 -11 6 -8 14 3 7 1 18
-5 24 -6 6 -6 12 3 17 8 6 10 4 4 -5 -5 -9 -4 -11 4 -6 6 4 8 13 4 19 -11 17
-12 69 -1 91 7 12 7 16 0 12 -11 -7 -10 39 1 50 3 3 4 11 2 17 -9 27 -13 67
-6 67 3 0 7 9 7 20 0 11 -3 20 -6 20 -4 0 -7 7 -7 15 0 8 4 12 9 9 4 -3 8 0 8
5 0 6 -6 11 -12 11 -8 0 -9 3 -3 8 12 9 13 32 1 51 -6 10 -5 12 2 7 9 -5 12
572 12 2314 0 1381 -4 2319 -9 2315 -8 -4 -8 14 -1 35 3 9 1 63 -3 103 -3 20
-1 40 5 43 5 3 4 11 -2 19 -12 15 -17 135 -6 153 3 6 1 14 -5 18 -8 5 -9 3 -4
-6 6 -9 4 -11 -5 -5 -10 6 -10 10 2 19 13 10 13 13 1 24 -10 10 -11 17 -3 27
8 9 8 15 0 20 -6 3 -7 12 -3 18 10 16 11 29 2 48 -5 9 -5 19 -2 23 9 9 10 55
1 50 -4 -3 -4 6 2 20 6 17 6 26 -1 26 -6 0 -6 7 1 20 8 14 8 20 0 20 -7 0 -8
6 -1 18 5 10 6 24 1 32 -4 7 -4 24 1 37 6 16 5 23 -4 23 -7 0 -8 3 -2 8 12 8
16 42 6 42 -4 0 -8 7 -8 15 0 8 3 15 7 15 8 0 5 49 -4 57 -3 3 -1 14 4 24 7
12 6 19 -2 21 -7 3 -8 9 -3 19 13 20 14 59 1 59 -6 0 -5 4 2 9 17 11 17 21 0
32 -7 5 -8 9 -3 9 6 0 11 11 11 25 1 15 -2 22 -9 18 -6 -4 -7 -1 -1 8 13 21
14 42 3 55 -7 8 -7 14 0 19 6 3 9 19 7 35 -2 17 1 30 5 30 5 0 9 5 9 11 0 5
-5 7 -12 3 -7 -4 -8 -3 -4 5 4 6 3 18 -4 26 -9 10 -7 16 7 24 10 6 13 11 5 11
-9 0 -10 5 -3 18 6 11 6 24 0 35 -7 12 -6 17 3 17 9 0 9 3 -2 10 -8 5 -10 10
-5 10 6 0 10 28 10 65 0 37 -4 65 -10 65 -5 0 -4 4 3 8 9 6 10 16 3 34 -5 14
-7 28 -4 32 9 9 10 87 1 93 -5 2 -4 11 2 18 8 10 8 15 0 20 -8 5 -8 11 1 21 9
11 8 14 -2 14 -9 0 -10 3 -4 8 12 8 13 22 2 40 -5 6 -4 12 1 12 5 0 6 19 3 43
-3 23 -6 72 -6 109 0 36 -2 65 -5 63 -3 -2 -5 14 -4 36 2 57 -6 90 -20 82 -6
-4 -6 0 2 9 8 10 10 24 4 39 -5 13 -7 36 -6 52 2 18 -1 25 -8 21 -7 -5 -9 -2
-5 8 3 9 0 21 -6 28 -9 10 -9 11 2 5 10 -6 12 -4 5 6 -9 14 -11 20 -17 51 -2
10 -6 21 -10 24 -4 4 -1 14 6 22 8 11 8 14 0 9 -7 -5 -14 6 -18 33 -4 22 -13
47 -22 55 -8 9 -10 15 -3 15 8 0 8 6 0 20 -6 11 -8 20 -5 20 3 0 0 10 -7 23
-7 12 -13 24 -13 27 -11 49 -28 89 -36 84 -7 -4 -7 1 0 15 7 12 8 21 2 21 -5
0 -13 10 -16 23 -12 38 -38 92 -49 99 -7 5 -5 8 4 8 9 0 11 3 5 8 -6 4 -19 27
-30 52 -11 25 -24 48 -30 52 -6 5 -6 8 0 8 6 0 4 4 -3 9 -7 4 -14 18 -15 29
-1 12 -4 22 -7 22 -3 0 -11 15 -19 33 -8 17 -25 49 -38 70 -13 20 -21 37 -18
37 3 0 -5 12 -19 27 -14 15 -23 30 -21 34 3 3 -8 19 -23 35 -15 15 -21 24 -13
19 9 -5 7 2 -5 17 -10 14 -23 23 -28 20 -5 -3 -6 0 -2 6 3 6 -1 18 -10 26 -8
9 -12 16 -8 16 4 0 -1 6 -12 14 -10 8 -19 20 -19 28 -1 7 -6 12 -13 10 -11 -2
-14 4 -11 24 0 3 -11 16 -25 29 -14 13 -26 29 -26 35 0 5 -4 10 -10 10 -5 0
-10 7 -10 16 0 8 -5 12 -11 9 -6 -4 -13 2 -16 13 -2 11 -14 23 -25 25 -11 3
-18 10 -15 15 7 10 -28 42 -45 42 -6 0 -9 3 -5 6 6 6 -24 37 -86 90 -20 17
-34 34 -30 37 3 4 -1 7 -10 7 -10 0 -17 5 -17 10 0 6 -7 10 -15 10 -8 0 -15 4
-15 10 0 5 -11 15 -24 22 -13 7 -48 33 -76 58 -29 25 -53 43 -55 40 -2 -3 -12
6 -24 20 -11 14 -20 21 -21 17 0 -8 -13 1 -51 36 -10 9 -26 17 -34 17 -9 0
-18 7 -21 15 -4 8 -10 12 -15 9 -5 -3 -9 -2 -9 3 0 4 -10 13 -23 18 -42 20
-112 60 -118 68 -3 4 -16 9 -28 12 -13 2 -30 12 -38 22 -8 10 -12 13 -9 6 3
-6 -20 2 -51 18 -31 16 -65 29 -75 29 -10 0 -18 5 -18 10 0 6 -12 10 -26 10
-14 0 -23 4 -20 9 3 5 -6 9 -20 9 -15 0 -30 6 -35 13 -7 12 -9 11 -9 -1 -1
-13 -2 -12 -10 1 -6 10 -20 15 -35 14 -14 -2 -23 1 -19 6 4 8 -24 13 -63 12
-7 -1 -10 4 -6 10 4 6 -4 8 -20 5 -15 -3 -24 -2 -22 2 7 11 -18 19 -49 16 -14
-2 -26 2 -26 8 0 6 -5 4 -10 -4 -5 -8 -10 -10 -10 -3 0 6 -9 9 -20 6 -11 -3
-20 0 -20 6 0 7 -11 10 -27 8 -16 -2 -36 0 -47 5 -13 7 -16 7 -12 -1 4 -6 3
-11 -3 -11 -5 0 -12 6 -14 13 -4 9 -6 9 -6 -1 -1 -8 -6 -10 -13 -6 -20 13
-641 12 -657 0 -10 -7 -13 -7 -9 -1 4 7 -24 11 -83 10 -52 0 -89 -4 -89 -10 0
-7 -3 -7 -8 0 -8 12 -102 14 -102 2 0 -5 -5 -5 -11 -1 -6 3 -39 6 -74 6 -35 0
-68 -3 -74 -6 -6 -4 -11 -1 -11 6 -1 8 -6 6 -15 -6 -8 -11 -15 -14 -15 -8 0 7
-7 12 -16 12 -10 0 -14 -5 -10 -16 4 -10 2 -13 -7 -7 -19 12 -41 9 -55 -7 -10
-13 -11 -13 -6 3 5 13 2 16 -10 11 -9 -3 -14 -9 -11 -13 2 -4 -2 -8 -10 -8 -8
0 -12 4 -10 8 7 10 -22 5 -32 -6 -4 -4 -2 -5 6 0 10 6 12 4 7 -4 -6 -9 -11 -9
-21 -1 -9 8 -14 6 -19 -6 -4 -9 -9 -14 -12 -11 -3 3 0 16 7 29 12 23 12 23 -9
5 -13 -12 -22 -15 -27 -7 -8 12 -25 4 -25 -13 0 -7 4 -6 10 3 5 8 10 10 10 4
0 -21 -13 -23 -39 -6 -25 16 -26 16 -11 -2 14 -18 14 -19 -7 -8 -12 7 -40 12
-63 12 -29 0 -39 4 -34 12 4 7 3 8 -4 4 -7 -4 -12 -14 -12 -23 0 -14 -3 -13
-17 3 -17 18 -78 30 -68 14 3 -4 -6 -7 -20 -7 -14 0 -22 3 -19 8 3 5 0 9 -5 9
-15 0 -14 -27 2 -33 6 -3 2 -4 -11 -4 -12 1 -21 6 -18 13 3 7 -5 9 -21 6 -15
-3 -23 -1 -20 4 3 6 -3 10 -14 10 -10 0 -19 -5 -19 -11 0 -5 -4 -3 -9 5 -6 8
-7 18 -5 22 3 4 0 8 -5 8 -6 0 -11 -10 -11 -22 -1 -21 -2 -21 -11 -5 -8 14
-14 15 -32 5 -20 -10 -21 -10 -8 6 12 15 12 17 0 14 -8 -2 -17 -7 -21 -13 -5
-6 -8 -4 -8 4 0 11 -4 9 -15 -5 -13 -16 -14 -16 -9 -1 7 20 -6 23 -24 5 -9 -9
-12 -9 -12 2 0 13 -2 13 -10 0 -6 -9 -10 -10 -10 -3 0 7 -12 11 -27 9 -16 -1
-43 1 -60 5 -22 5 -33 3 -33 -5 0 -6 -5 -4 -10 4 -7 11 -10 11 -10 2 0 -10 -5
-10 -21 -1 -16 8 -20 8 -14 -1 6 -9 3 -9 -12 -2 -11 6 -25 7 -33 2 -8 -5 -19
-5 -25 -1 -14 10 -97 8 -114 -3 -9 -6 -12 -5 -8 1 3 5 -12 9 -38 9 -26 0 -41
-4 -38 -9 4 -6 1 -7 -7 -2 -18 11 -110 13 -132 3 -9 -5 -19 -4 -23 2 -3 6 -15
6 -29 0 -15 -5 -27 -5 -35 3 -8 8 -11 8 -11 -1 0 -10 -5 -10 -20 -2 -16 9 -20
8 -20 -7 0 -15 -2 -15 -15 3 -10 13 -14 14 -15 5 0 -11 -3 -11 -17 0 -15 12
-16 12 -10 -6 7 -19 6 -19 -7 -2 -13 17 -14 17 -21 0 -5 -13 -9 -14 -12 -5 -4
10 -8 10 -21 0 -12 -10 -14 -10 -8 0 4 6 3 12 -3 12 -5 0 -13 -5 -16 -10 -4
-7 -13 -6 -27 1 -15 8 -19 8 -14 0 4 -6 3 -11 -3 -11 -5 0 -11 6 -14 13 -3 9
-7 9 -20 -2 -14 -11 -17 -11 -17 0 0 12 -2 12 -9 0 -6 -10 -10 -10 -16 -1 -5
8 -12 7 -25 -5 -17 -15 -19 -15 -29 2 -8 14 -10 14 -11 3 0 -12 -2 -13 -9 -1
-6 9 -11 10 -15 2 -4 -6 -12 -11 -17 -11 -6 0 -7 6 -3 13 5 8 2 8 -9 -2 -14
-11 -17 -11 -18 0 0 8 -4 5 -9 -6 -5 -11 -9 -15 -9 -9 -1 7 -10 14 -22 17 -13
4 -19 1 -16 -6 3 -7 -5 -12 -18 -12 -18 0 -21 3 -13 13 7 8 7 12 0 12 -6 0
-14 -4 -17 -10 -9 -15 -27 -12 -19 3 6 10 4 10 -7 0 -7 -7 -17 -13 -22 -13 -4
0 -5 6 -1 13 6 9 4 9 -7 1 -8 -6 -24 -14 -36 -16 -17 -5 -20 -2 -15 11 5 13 3
14 -10 3 -13 -10 -17 -10 -21 0 -4 9 -6 7 -6 -4 -1 -9 -6 -20 -13 -24 -7 -4
-8 -3 -4 4 12 19 -3 35 -20 21 -11 -9 -14 -8 -14 2 0 9 -3 10 -8 4 -4 -6 -20
-12 -36 -13 -21 -3 -26 -1 -20 10 6 11 5 11 -8 0 -10 -8 -19 -9 -22 -3 -6 9
-43 7 -54 -4 -3 -2 -12 1 -20 8 -10 7 -13 8 -9 1 4 -7 -2 -11 -18 -11 -14 0
-22 4 -18 10 4 6 1 7 -8 1 -8 -5 -25 -10 -39 -11 -20 -3 -22 -1 -10 7 9 6 10
10 3 10 -7 0 -17 -8 -22 -17 -7 -12 -10 -14 -11 -4 0 11 -3 11 -17 0 -9 -8
-14 -9 -10 -3 10 17 -19 25 -47 14 -15 -5 -27 -5 -35 3 -14 14 -15 -4 -1 -21
7 -9 7 -9 -2 -2 -7 6 -21 10 -33 10 -16 0 -17 2 -5 10 8 5 11 10 7 10 -4 0
-20 -8 -35 -17 -26 -17 -27 -17 -12 1 14 18 14 19 -6 8 -14 -8 -24 -8 -31 -1
-8 8 -13 7 -17 0 -4 -6 -15 -11 -24 -11 -15 0 -15 2 -2 10 8 5 10 10 5 10 -6
0 -16 -5 -23 -12 -7 -7 -12 -8 -12 -2 0 10 -65 12 -76 2 -3 -4 -16 -4 -28 0
-27 9 -47 9 -63 -1 -8 -5 -13 -3 -13 4 0 7 -7 4 -15 -7 -11 -14 -14 -15 -9 -3
6 20 -11 34 -22 18 -5 -8 -3 -9 7 -4 12 7 12 5 1 -6 -11 -12 -14 -12 -21 0 -7
10 -10 11 -16 1 -6 -10 -12 -8 -23 6 -13 16 -14 17 -9 2 4 -10 2 -18 -3 -18
-6 0 -10 5 -10 11 0 8 -5 8 -15 -1 -8 -7 -15 -8 -15 -3 0 5 -9 9 -19 9 -15 0
-17 -3 -9 -13 8 -10 7 -12 -6 -7 -9 3 -16 10 -16 15 0 5 -5 9 -11 9 -5 0 -8
-4 -5 -8 2 -4 -9 -8 -25 -7 -16 0 -29 4 -29 9 0 6 -5 5 -12 -2 -9 -9 -15 -7
-25 6 -8 9 -12 12 -9 5 4 -6 2 -14 -4 -18 -5 -3 -10 -2 -10 4 0 6 -16 8 -37 6
-21 -2 -38 -5 -38 -5 0 -1 -17 -3 -37 -4 -21 -1 -38 2 -38 7 0 5 -8 3 -17 -4
-11 -10 -14 -10 -9 -1 8 13 -6 17 -18 5 -11 -11 -76 -11 -76 0 0 5 -8 3 -17
-4 -9 -8 -14 -9 -10 -3 4 7 -4 14 -20 17 -25 5 -26 4 -9 -8 18 -13 17 -14 -3
-12 -11 1 -21 4 -21 8 0 4 -11 9 -25 11 -18 4 -22 2 -16 -6 6 -8 1 -11 -16
-13 -16 0 -21 2 -14 7 9 5 5 9 -12 12 -17 3 -24 1 -20 -8 2 -6 -1 -15 -8 -20
-7 -4 -10 -3 -5 4 10 17 -13 25 -31 10 -12 -9 -15 -9 -9 0 4 6 3 12 -3 12 -5
0 -13 -4 -16 -10 -8 -13 -25 -13 -25 1 0 5 5 7 12 3 7 -4 8 -3 4 5 -6 9 -11 9
-23 -1 -22 -18 -65 -17 -81 2 -8 8 -11 9 -7 3 7 -16 4 -16 -29 -3 -17 6 -27 6
-32 -2 -4 -6 -3 -8 2 -5 6 3 16 2 23 -2 7 -5 -5 -8 -28 -7 -23 0 -41 5 -41 10
0 5 -8 2 -17 -5 -14 -12 -15 -12 -9 0 7 10 3 12 -14 6 -17 -5 -21 -4 -16 6 4
8 1 6 -7 -4 -14 -17 -15 -17 -22 0 -6 17 -7 17 -21 -1 -8 -12 -14 -15 -14 -7
0 11 -3 11 -17 0 -15 -12 -16 -12 -10 5 7 17 5 17 -9 5 -24 -19 -64 -20 -65 0
0 12 -3 11 -9 -4 -5 -11 -9 -15 -9 -8 -1 7 -8 10 -16 7 -8 -4 -12 -11 -8 -18
3 -6 0 -5 -8 2 -12 11 -12 14 1 23 12 9 12 10 -3 5 -10 -3 -21 -6 -23 -6 -3 0
-3 -4 0 -8 2 -4 -4 -8 -15 -8 -10 0 -19 3 -19 6 0 3 -9 6 -20 7 -11 1 -18 -2
-15 -8 4 -5 2 -9 -4 -9 -5 0 -11 5 -13 12 -3 7 -9 8 -19 3 -19 -13 -109 -13
-102 -1 4 5 -1 7 -9 3 -9 -3 -20 -1 -26 5 -6 6 -12 6 -17 -3 -6 -8 -4 -10 6
-4 8 5 11 4 6 0 -4 -5 -28 -10 -53 -10 -37 -2 -44 1 -39 14 3 11 0 10 -10 -3
-11 -14 -15 -16 -15 -5 0 12 -2 12 -10 -1 -6 -9 -10 -10 -10 -3 0 13 -38 12
-59 -2 -9 -5 -12 -4 -8 2 4 7 -3 10 -17 9 -13 0 -22 -4 -19 -8 9 -16 -10 -7
-23 10 -11 13 -13 14 -9 1 4 -10 0 -16 -10 -16 -8 0 -15 5 -15 10 0 5 -7 4
-16 -4 -13 -10 -17 -10 -24 1 -7 11 -11 11 -23 1 -12 -9 -16 -9 -19 1 -4 10
-8 10 -21 -1 -11 -9 -17 -10 -17 -2 0 6 -5 11 -11 11 -5 0 -7 -4 -4 -10 9 -14
-8 -13 -23 2 -8 8 -15 8 -26 -1 -10 -9 -16 -9 -21 -1 -5 8 -11 8 -21 -1 -10
-8 -14 -8 -14 0 0 6 -5 11 -11 11 -5 0 -8 -4 -4 -9 3 -5 1 -13 -5 -16 -6 -4
-9 -1 -8 5 2 7 -10 14 -26 15 -26 4 -27 3 -10 -10 18 -13 18 -14 -3 -8 -13 3
-23 10 -23 15 0 6 -7 5 -15 -2 -10 -9 -15 -9 -15 -1 0 6 -5 11 -11 11 -5 0 -8
-4 -4 -9 3 -5 0 -13 -6 -17 -8 -4 -9 -3 -5 4 4 7 2 12 -4 12 -6 0 -8 5 -4 12
4 7 3 8 -5 4 -6 -4 -9 -12 -6 -17 4 -5 1 -9 -4 -9 -6 0 -11 5 -11 11 0 8 -5 8
-15 -1 -8 -7 -15 -8 -15 -3 0 5 -9 9 -19 9 -11 0 -17 -4 -15 -8 3 -4 1 -8 -4
-8 -6 0 -13 7 -16 16 -6 15 -8 15 -28 -2 -15 -14 -22 -16 -25 -6 -3 6 -11 12
-19 12 -9 0 -13 -4 -9 -9 8 -14 -34 -5 -53 11 -10 9 -13 9 -9 1 4 -6 3 -14 -3
-18 -5 -3 -10 -1 -10 6 0 9 -3 9 -14 0 -11 -9 -16 -9 -22 0 -5 8 -3 9 6 4 9
-5 11 -4 6 4 -6 9 -11 9 -22 0 -11 -9 -14 -9 -14 0 0 7 -5 9 -10 6 -6 -4 -7
-12 -3 -18 5 -9 3 -9 -8 -1 -17 14 -119 23 -119 10 0 -5 -7 -3 -15 4 -12 10
-15 10 -15 -1 0 -11 -2 -11 -10 1 -7 11 -10 11 -10 2 0 -9 -5 -10 -17 -3 -10
5 -26 5 -40 0 -14 -5 -25 -4 -29 2 -4 8 -9 7 -15 -2 -5 -8 -9 -9 -9 -3 0 11
-57 10 -68 -1 -3 -3 -11 0 -19 6 -9 9 -13 8 -13 0 0 -9 -5 -9 -20 -1 -15 8
-20 8 -20 -2 0 -9 -3 -9 -10 2 -5 8 -10 10 -10 4 0 -11 -48 -10 -77 1 -7 2
-15 -1 -19 -7 -4 -6 -3 -8 4 -4 6 3 13 2 16 -3 4 -5 -2 -8 -11 -6 -10 2 -18 4
-18 5 0 1 -8 3 -17 5 -10 2 -22 -4 -28 -13 -8 -15 -9 -15 -10 -1 0 10 -8 15
-22 13 -13 -1 -29 -3 -35 -3 -7 -1 -13 -9 -14 -18 0 -16 -1 -16 -8 1 -7 18 -8
18 -14 2 -6 -16 -9 -16 -28 -2 -12 8 -28 12 -35 9 -8 -3 -22 1 -32 8 -16 13
-16 13 -2 -6 8 -11 22 -26 30 -33 13 -12 13 -13 0 -6 -8 4 -23 14 -33 23 -25
21 -47 23 -40 3 5 -11 3 -13 -8 -6 -22 13 -59 16 -59 4 0 -6 5 -8 10 -5 6 3
10 1 10 -5 0 -7 -7 -9 -16 -6 -9 3 -18 6 -20 6 -3 0 -2 5 1 10 3 6 2 10 -4 10
-5 0 -13 -5 -16 -10 -4 -7 -14 -5 -26 4 -21 14 -59 11 -59 -5 0 -5 -5 -9 -11
-9 -5 0 -8 4 -4 9 3 5 0 13 -6 17 -8 4 -9 3 -5 -5 5 -8 -1 -10 -23 -6 -19 3
-31 1 -31 -5 0 -6 5 -8 10 -5 6 3 10 2 10 -3 0 -6 -7 -13 -16 -16 -8 -3 -12
-2 -9 4 3 6 1 10 -5 10 -6 0 -8 6 -4 13 6 10 4 10 -7 0 -17 -16 -59 -17 -59
-1 0 6 -3 8 -6 5 -4 -4 -1 -14 7 -23 13 -16 12 -16 -11 -4 -14 7 -28 18 -32
24 -5 7 -8 7 -8 1 0 -6 -16 -12 -35 -13 -20 -2 -35 2 -35 8 0 6 -7 4 -16 -5
-14 -14 -19 -14 -33 -2 -24 22 -53 18 -45 -6 5 -17 4 -17 -16 3 -17 17 -24 19
-36 9 -11 -9 -14 -8 -15 7 0 15 -2 16 -7 4 -10 -21 -52 -22 -53 -1 0 10 -2 11
-6 4 -7 -20 -23 -15 -17 5 3 9 -2 6 -11 -8 -9 -14 -14 -17 -11 -8 3 10 1 20
-4 23 -6 4 -10 -2 -10 -12 -1 -17 -1 -17 -14 0 -11 14 -15 15 -19 5 -4 -10 -6
-10 -6 0 -1 6 -7 12 -15 12 -8 0 -17 -6 -19 -12 -3 -7 -6 -4 -6 6 -1 15 -4 17
-12 9 -8 -8 -20 -8 -35 -3 -16 6 -24 6 -24 -1 0 -6 -5 -7 -12 -3 -17 11 -58
11 -58 1 0 -4 -6 -5 -12 0 -20 12 -948 12 -941 0 4 -6 1 -7 -8 -1 -19 12 -89
11 -89 -1 0 -5 -4 -4 -9 4 -6 9 -11 10 -15 2z m5974 -21 c0 -5 -2 -10 -4 -10
-3 0 -8 5 -11 10 -3 6 -1 10 4 10 6 0 11 -4 11 -10z m235 1 c-9 -8 -36 -10
-30 -2 2 4 11 8 20 8 8 0 13 -3 10 -6z m-4140 -10 c3 -5 1 -12 -5 -16 -5 -3
-10 1 -10 9 0 18 6 21 15 7z m-615 -16 c11 -13 10 -14 -4 -9 -9 3 -16 10 -16
15 0 13 6 11 20 -6z m60 8 c0 -5 -5 -15 -10 -23 -7 -12 -9 -10 -7 8 1 19 17
33 17 15z m305 -2 c3 -5 2 -12 -3 -15 -5 -3 -9 1 -9 9 0 17 3 19 12 6z m196
-14 c-10 -9 -11 -8 -5 6 3 10 9 15 12 12 3 -3 0 -11 -7 -18z m6102 7 c4 -1 10
-2 13 -3 3 0 2 -6 -2 -12 -4 -7 -10 -7 -16 -1 -6 6 -17 8 -24 5 -8 -3 -14 -1
-14 4 0 15 12 23 24 15 6 -4 14 -7 19 -8z m-6538 -4 c3 -5 1 -10 -4 -10 -6 0
-11 5 -11 10 0 6 2 10 4 10 3 0 8 -4 11 -10z m69 -2 c-3 -5 -10 -6 -15 -3 -5
4 -9 1 -9 -6 0 -7 -3 -10 -6 -6 -9 9 3 24 20 24 8 0 13 -4 10 -9z m6411 2 c3
-5 1 -10 -4 -10 -6 0 -11 5 -11 10 0 6 2 10 4 10 3 0 8 -4 11 -10z m-6325 -4
c0 -2 -8 -10 -17 -17 -16 -13 -17 -12 -4 4 13 16 21 21 21 13z m6495 -5 c3 -5
2 -12 -3 -15 -5 -3 -9 1 -9 9 0 17 3 19 12 6z m-6671 -12 c3 -3 -6 -5 -19 -5
-14 0 -25 4 -25 8 0 8 36 6 44 -3z m116 1 c0 -5 -2 -10 -4 -10 -3 0 -8 5 -11
10 -3 6 -1 10 4 10 6 0 11 -4 11 -10z m80 0 c0 -5 -5 -10 -11 -10 -5 0 -7 5
-4 10 3 6 8 10 11 10 2 0 4 -4 4 -10z m-216 -39 c14 -15 15 -21 4 -27 -7 -4
-10 -3 -5 1 4 5 0 17 -10 27 -9 10 -14 18 -11 18 3 0 13 -9 22 -19z m-186 -11
c-7 -10 -14 -17 -17 -15 -4 4 18 35 25 35 2 0 -1 -9 -8 -20z m39 -5 c0 -8 -4
-12 -9 -9 -5 3 -6 10 -3 15 9 13 12 11 12 -6z m40 -10 c0 -8 -4 -12 -9 -9 -5
3 -6 10 -3 15 9 13 12 11 12 -6z m-62 -74 c3 -5 2 -12 -3 -15 -5 -3 -9 1 -9 9
0 17 3 19 12 6z m-3388 -4666 c0 -8 -4 -12 -9 -9 -5 3 -6 10 -3 15 9 13 12 11
12 -6z m7 -214 c-4 -3 -9 0 -11 7 -3 6 -10 9 -15 6 -7 -4 -8 -2 -4 5 6 9 11 9
22 0 8 -6 12 -15 8 -18z m-31 -326 c4 -8 3 -16 -1 -19 -4 -3 -9 4 -9 15 -2 23
3 25 10 4z m7 -255 c0 -5 -4 -10 -10 -10 -5 0 -10 5 -10 10 0 6 5 10 10 10 6
0 10 -4 10 -10z m-4 -86 c1 -9 0 -13 -4 -10 -3 4 -7 14 -8 22 -1 9 0 13 4 10
3 -4 7 -14 8 -22z m25 -4727 c-10 -9 -11 -8 -5 6 3 10 9 15 12 12 3 -3 0 -11
-7 -18z m3259 -2977 c8 -5 11 -10 5 -10 -5 0 -17 5 -25 10 -8 5 -10 10 -5 10
6 0 17 -5 25 -10z"/>
<path d="M6116 13992 c-3 -5 1 -9 9 -9 8 0 12 4 9 9 -3 4 -7 8 -9 8 -2 0 -6
-4 -9 -8z"/>
<path d="M6356 13992 c-3 -5 1 -9 9 -9 8 0 12 4 9 9 -3 4 -7 8 -9 8 -2 0 -6
-4 -9 -8z"/>
<path d="M6710 13990 c0 -5 5 -10 11 -10 5 0 7 5 4 10 -3 6 -8 10 -11 10 -2 0
-4 -4 -4 -10z"/>
<path d="M7076 13992 c-3 -5 1 -9 9 -9 8 0 12 4 9 9 -3 4 -7 8 -9 8 -2 0 -6
-4 -9 -8z"/>
<path d="M7196 13992 c-3 -5 1 -9 9 -9 8 0 12 4 9 9 -3 4 -7 8 -9 8 -2 0 -6
-4 -9 -8z"/>
<path d="M4261 13974 c0 -11 3 -14 6 -6 3 7 2 16 -1 19 -3 4 -6 -2 -5 -13z"/>
<path d="M3466 13968 c3 -5 10 -6 15 -3 13 9 11 12 -6 12 -8 0 -12 -4 -9 -9z"/>
<path d="M56 9913 c-6 -14 -5 -15 5 -6 7 7 10 15 7 18 -3 3 -9 -2 -12 -12z"/>
<path d="M30 9876 c0 -2 8 -10 18 -17 15 -13 16 -12 3 4 -13 16 -21 21 -21 13z"/>
<path d="M73 9485 c0 -8 4 -12 9 -9 5 3 6 10 3 15 -9 13 -12 11 -12 -6z"/>
<path d="M64 9322 c3 -5 1 -12 -6 -14 -8 -3 -9 -6 -1 -11 6 -4 13 0 17 8 3 8
0 17 -6 21 -6 4 -8 3 -4 -4z"/>
<path d="M50 9160 c0 -5 5 -10 11 -10 5 0 7 5 4 10 -3 6 -8 10 -11 10 -2 0 -4
-4 -4 -10z"/>
<path d="M33 9005 c0 -7 6 -11 14 -8 7 3 13 6 13 8 0 2 -6 5 -13 8 -8 3 -14
-1 -14 -8z"/>
<path d="M27 8639 c7 -7 15 -10 18 -7 3 3 -2 9 -12 12 -14 6 -15 5 -6 -5z"/>
<path d="M27 8479 c7 -7 15 -10 18 -7 3 3 -2 9 -12 12 -14 6 -15 5 -6 -5z"/>
<path d="M21 8444 c0 -11 3 -14 6 -6 3 7 2 16 -1 19 -3 4 -6 -2 -5 -13z"/>
<path d="M60 3844 c0 -8 5 -12 10 -9 6 4 8 11 5 16 -9 14 -15 11 -15 -7z"/>
<path d="M50 3220 c0 -5 5 -10 11 -10 5 0 7 5 4 10 -3 6 -8 10 -11 10 -2 0 -4
-4 -4 -10z"/>
<path d="M7435 90 c3 -5 8 -10 11 -10 2 0 4 5 4 10 0 6 -5 10 -11 10 -5 0 -7
-4 -4 -10z"/>
</g>
</svg>
